<svg id="icon" xmlns="http://www.w3.org/2000/svg" viewBox="0 0 1000 1000"><defs><style>.cls-1{fill:#2482ac;}</style></defs><path class="cls-1" d="M796.79,1000c-91.94,0-166.73-74.8-166.73-166.74,0-5.14.23-10.33.7-15.42a102.61,102.61,0,0,0-191-60.65l-92,159.41a166.65,166.65,0,0,1-227.77,61,166.74,166.74,0,0,1-61-227.77L443.66,83.4a166.65,166.65,0,0,1,227.77-61,166.73,166.73,0,0,1,61,227.77L552.25,562.27A102.61,102.61,0,0,0,700.56,697.21a165.2,165.2,0,0,1,96.23-30.69c92,0,166.74,74.8,166.74,166.74S888.74,1000,796.79,1000Z"/><circle class="cls-1" cx="525.65" cy="820.65" r="115.43"/></svg>